<svg viewBox="0 0 28 28" fill="none" xmlns="http://www.w3.org/2000/svg">
<path fill-rule="evenodd" clip-rule="evenodd" d="M9.25905 6.50661L9.25905 9.49395H8.55905V6.50661H9.25905Z" fill="#3A55A3"/>
<path fill-rule="evenodd" clip-rule="evenodd" d="M9.25905 17.5598L9.25905 20.5471H8.55905V17.5598H9.25905Z" fill="#3A55A3"/>
<path fill-rule="evenodd" clip-rule="evenodd" d="M15.628 13.975H12.9394V13.275H15.628V13.975Z" fill="#3A55A3"/>
<path d="M3.6002 4.73982C3.6002 3.41993 4.67018 2.34995 5.99007 2.34995H11.9647C13.2846 2.34995 14.3546 3.41993 14.3546 4.73982C14.3546 6.05971 13.2846 7.12969 11.9647 7.12969H5.99006C4.67017 7.12969 3.6002 6.05971 3.6002 4.73982Z" fill="white"/>
<path fill-rule="evenodd" clip-rule="evenodd" d="M3.2002 4.73982C3.2002 3.19902 4.44926 1.94995 5.99007 1.94995H11.9647C13.5055 1.94995 14.7546 3.19902 14.7546 4.73982C14.7546 6.28062 13.5055 7.52969 11.9647 7.52969H5.99006C4.44926 7.52969 3.2002 6.28062 3.2002 4.73982ZM5.99007 2.74995C4.89109 2.74995 4.0002 3.64085 4.0002 4.73982C4.0002 5.8388 4.89109 6.72969 5.99006 6.72969H11.9647C13.0637 6.72969 13.9546 5.8388 13.9546 4.73982C13.9546 3.64085 13.0637 2.74995 11.9647 2.74995H5.99007Z" fill="#3A55A3"/>
<path d="M3.6002 21.0227C3.6002 20.5809 3.95837 20.2227 4.4002 20.2227H13.5546C13.9964 20.2227 14.3546 20.5809 14.3546 21.0227V24.7999C14.3546 25.2417 13.9964 25.5999 13.5546 25.5999H4.4002C3.95837 25.5999 3.6002 25.2417 3.6002 24.7999V21.0227Z" fill="white"/>
<path fill-rule="evenodd" clip-rule="evenodd" d="M3.2002 21.0227C3.2002 20.36 3.73745 19.8227 4.4002 19.8227H13.5546C14.2174 19.8227 14.7546 20.36 14.7546 21.0227V24.7999C14.7546 25.4626 14.2174 25.9999 13.5546 25.9999H4.4002C3.73745 25.9999 3.2002 25.4626 3.2002 24.7999V21.0227ZM4.4002 20.6227C4.17928 20.6227 4.0002 20.8018 4.0002 21.0227V24.7999C4.0002 25.0208 4.17928 25.1999 4.4002 25.1999H13.5546C13.7755 25.1999 13.9546 25.0208 13.9546 24.7999V21.0227C13.9546 20.8018 13.7755 20.6227 13.5546 20.6227H4.4002Z" fill="#3A55A3"/>
<path d="M15.2508 11.8474C15.2508 11.4055 15.609 11.0474 16.0508 11.0474H24.9065C25.3483 11.0474 25.7065 11.4055 25.7065 11.8474V15.6246C25.7065 16.0664 25.3483 16.4246 24.9065 16.4246H16.0508C15.609 16.4246 15.2508 16.0664 15.2508 15.6246V11.8474Z" fill="white"/>
<path fill-rule="evenodd" clip-rule="evenodd" d="M14.8508 11.8474C14.8508 11.1846 15.3881 10.6474 16.0508 10.6474H24.9065C25.5692 10.6474 26.1065 11.1846 26.1065 11.8474V15.6246C26.1065 16.2873 25.5692 16.8246 24.9065 16.8246H16.0508C15.3881 16.8246 14.8508 16.2873 14.8508 15.6246V11.8474ZM16.0508 11.4474C15.8299 11.4474 15.6508 11.6264 15.6508 11.8474V15.6246C15.6508 15.8455 15.8299 16.0246 16.0508 16.0246H24.9065C25.1274 16.0246 25.3065 15.8455 25.3065 15.6246V11.8474C25.3065 11.6264 25.1274 11.4474 24.9065 11.4474H16.0508Z" fill="#3A55A3"/>
<path d="M5.0621 14.1968C4.74968 13.8844 4.74968 13.3779 5.0621 13.0654L8.3667 9.76084C8.67912 9.44842 9.18565 9.44842 9.49807 9.76084L12.8027 13.0654C13.1151 13.3779 13.1151 13.8844 12.8027 14.1968L9.49807 17.5014C9.18565 17.8138 8.67912 17.8138 8.3667 17.5014L5.0621 14.1968Z" fill="white"/>
<path fill-rule="evenodd" clip-rule="evenodd" d="M4.77925 14.4797C4.31063 14.011 4.31062 13.2512 4.77925 12.7826L8.08385 9.478C8.55248 9.00937 9.31228 9.00937 9.78091 9.478L13.0855 12.7826C13.5541 13.2512 13.5541 14.011 13.0855 14.4797L9.78091 17.7843C9.31228 18.2529 8.55248 18.2529 8.08385 17.7843L4.77925 14.4797ZM5.34494 13.3483C5.18873 13.5045 5.18873 13.7578 5.34494 13.914L8.64954 17.2186C8.80575 17.3748 9.05902 17.3748 9.21523 17.2186L12.5198 13.914C12.676 13.7578 12.676 13.5045 12.5198 13.3483L9.21523 10.0437C9.05902 9.88747 8.80575 9.88747 8.64954 10.0437L5.34494 13.3483Z" fill="#3A55A3"/>
</svg>
