<svg viewBox="0 0 28 28" fill="none" xmlns="http://www.w3.org/2000/svg">
<path d="M2.9166 3.7166C2.9166 3.27477 3.27477 2.9166 3.7166 2.9166H24.2833C24.7251 2.9166 25.0833 3.27477 25.0833 3.7166V24.2833C25.0833 24.7251 24.7251 25.0833 24.2833 25.0833H3.7166C3.27477 25.0833 2.9166 24.7251 2.9166 24.2833V3.7166Z" fill="white"/>
<path fill-rule="evenodd" clip-rule="evenodd" d="M2.5166 3.7166C2.5166 3.05386 3.05386 2.5166 3.7166 2.5166H24.2833C24.946 2.5166 25.4833 3.05386 25.4833 3.7166V24.2833C25.4833 24.946 24.946 25.4833 24.2833 25.4833H3.7166C3.05386 25.4833 2.5166 24.946 2.5166 24.2833V3.7166ZM3.7166 3.3166C3.49569 3.3166 3.3166 3.49569 3.3166 3.7166V24.2833C3.3166 24.5042 3.49569 24.6833 3.7166 24.6833H24.2833C24.5042 24.6833 24.6833 24.5042 24.6833 24.2833V3.7166C24.6833 3.49569 24.5042 3.3166 24.2833 3.3166H3.7166Z" fill="#3A55A3"/>
<path fill-rule="evenodd" clip-rule="evenodd" d="M4.57902 13.6499H24.9999V14.3499H4.57902V13.6499Z" fill="#3A55A3"/>
<path d="M3.44152 25.0833C3.15157 25.0833 2.91652 24.8483 2.91652 24.5583V3.44164C2.91652 3.15169 3.15157 2.91664 3.44152 2.91664H4.05402C4.34397 2.91664 4.57902 3.15169 4.57902 3.44164V14V24.5583C4.57902 24.8483 4.34397 25.0833 4.05402 25.0833H3.44152Z" fill="#3A55A3"/>
<path fill-rule="evenodd" clip-rule="evenodd" d="M13.1042 8.29961H17.2293C17.7678 8.29961 18.2043 8.73613 18.2043 9.2746V16.7709H17.5543V9.2746C17.5543 9.09511 17.4088 8.9496 17.2293 8.9496H13.1042V8.29961Z" fill="#3A55A3"/>
<path d="M13.446 17.4208C13.446 17.0618 13.737 16.7708 14.096 16.7708H21.6627C22.0217 16.7708 22.3127 17.0618 22.3127 17.4208V21.1083C22.3127 21.4673 22.0217 21.7583 21.6627 21.7583H14.096C13.737 21.7583 13.446 21.4673 13.446 21.1083V17.4208Z" fill="white"/>
<path fill-rule="evenodd" clip-rule="evenodd" d="M13.121 17.4208C13.121 16.8823 13.5575 16.4458 14.096 16.4458H21.6627C22.2012 16.4458 22.6377 16.8823 22.6377 17.4208V21.1083C22.6377 21.6468 22.2012 22.0833 21.6627 22.0833H14.096C13.5575 22.0833 13.121 21.6468 13.121 21.1083V17.4208ZM14.096 17.0958C13.9165 17.0958 13.771 17.2413 13.771 17.4208V21.1083C13.771 21.2878 13.9165 21.4333 14.096 21.4333H21.6627C21.8422 21.4333 21.9877 21.2878 21.9877 21.1083V17.4208C21.9877 17.2413 21.8422 17.0958 21.6627 17.0958H14.096Z" fill="#3A55A3"/>
<path d="M6.70142 9.08419C6.44757 8.83035 6.44758 8.4188 6.70142 8.16496L9.5048 5.36157C9.75864 5.10773 10.1702 5.10773 10.424 5.36157L13.2274 8.16496C13.4813 8.4188 13.4813 8.83035 13.2274 9.08419L10.424 11.8876C10.1702 12.1414 9.75864 12.1414 9.5048 11.8876L6.70142 9.08419Z" fill="white"/>
<path fill-rule="evenodd" clip-rule="evenodd" d="M6.47161 9.314C6.09084 8.93324 6.09085 8.31591 6.47161 7.93515L9.27499 5.13176C9.65575 4.751 10.2731 4.751 10.6538 5.13176L13.4572 7.93515C13.838 8.31591 13.838 8.93324 13.4572 9.314L10.6538 12.1174C10.2731 12.4981 9.65575 12.4981 9.27499 12.1174L6.47161 9.314ZM6.93123 8.39477C6.80431 8.52169 6.80431 8.72746 6.93123 8.85438L9.73461 11.6578C9.86153 11.7847 10.0673 11.7847 10.1942 11.6578L12.9976 8.85439C13.1245 8.72746 13.1245 8.52169 12.9976 8.39477L10.1942 5.59138C10.0673 5.46446 9.86153 5.46446 9.73461 5.59138L6.93123 8.39477Z" fill="#3A55A3"/>
</svg>
